<?xml version="1.0" encoding="UTF-8"?>
<svg width="300" height="450" viewBox="0 0 300 450" xmlns="http://www.w3.org/2000/svg">
    <!-- 背景 -->
    <rect width="300" height="450" fill="#ffffff"/>
    
    <!-- 顶部状态栏 -->
    <rect width="300" height="44" fill="#4A6FFF"/>
    <text x="15" y="28" fill="white" font-size="14" font-family="Arial">9:41</text>
    <g transform="translate(240, 15)">
        <path d="M0,4 h3 m3,0 h3 m3,0 h3" stroke="white" stroke-width="2"/>
        <path d="M20,0 v8 m4,-8 v8" stroke="white" stroke-width="2"/>
        <rect x="30" y="2" width="20" height="12" stroke="white" stroke-width="2" fill="none" rx="2"/>
    </g>
    
    <!-- 标题栏 -->
    <rect y="44" width="300" height="50" fill="#4A6FFF"/>
    <text x="20" y="75" fill="white" font-size="18" font-weight="bold" font-family="Arial">账户管理</text>
    <circle cx="270" cy="69" r="3" fill="white"/>
    <circle cx="270" cy="69" r="1" fill="#4A6FFF"/>
    
    <!-- 用户资料区域 -->
    <rect y="94" width="300" height="120" fill="white"/>
    <circle cx="60" cy="154" r="35" fill="#f0f5ff"/>
    <text x="60" y="164" fill="#4A6FFF" font-size="28" text-anchor="middle" font-family="Arial">张</text>
    <text x="120" y="144" fill="#333333" font-size="20" font-weight="bold" font-family="Arial">张三</text>
    <text x="120" y="168" fill="#666666" font-size="14" font-family="Arial">zhangsan@example.com</text>
    <rect x="120" y="178" width="70" height="24" rx="4" fill="#f0f5ff"/>
    <text x="135" y="194" fill="#4A6FFF" font-size="12" font-family="Arial">编辑资料</text>
    
    <!-- 银行卡区域 -->
    <rect x="20" y="234" width="260" height="140" rx="12" fill="white" stroke="#eaeaea" stroke-width="1"/>
    <text x="40" y="264" fill="#333333" font-size="16" font-weight="bold" font-family="Arial">银行卡管理</text>
    <text x="220" y="264" fill="#4A6FFF" font-size="14" font-family="Arial">管理</text>
    
    <!-- 银行卡 -->
    <rect x="40" y="274" width="220" height="80" rx="8" fill="url(#card-gradient)"/>
    <defs>
        <linearGradient id="card-gradient" x1="0%" y1="0%" x2="100%" y2="100%">
            <stop offset="0%" style="stop-color:#4A6FFF"/>
            <stop offset="100%" style="stop-color:#2E4BCC"/>
        </linearGradient>
    </defs>
    <text x="60" y="304" fill="white" font-size="14" font-family="Arial">招商银行</text>
    <text x="60" y="324" fill="white" font-size="16" font-family="Arial" letter-spacing="2">**** **** **** 5678</text>
    <text x="60" y="344" fill="white" font-size="12" font-family="Arial">ZHANG SAN</text>
    
    <!-- 设置选项 -->
    <rect y="394" width="300" height="56" fill="white"/>
    <circle cx="50" cy="422" r="18" fill="#f0f5ff"/>
    <text x="50" y="428" fill="#4A6FFF" font-size="14" text-anchor="middle" font-family="Arial">锁</text>
    <text x="90" y="427" fill="#333333" font-size="16" font-family="Arial">安全设置</text>
    <text x="270" y="427" fill="#999999" font-size="16" font-family="Arial">›</text>
</svg>