<?xml version="1.0" encoding="UTF-8"?>
<svg width="414" height="896" viewBox="0 0 414 896" xmlns="http://www.w3.org/2000/svg">
    <!-- 背景 -->
    <rect width="414" height="896" fill="#ffffff"/>
    
    <!-- 状态栏 -->
    <rect width="414" height="44" fill="#4A6FFF"/>
    
    <!-- 头部 -->
    <rect y="44" width="414" height="60" fill="#4A6FFF"/>
    <text x="20" y="80" font-family="PingFang SC, Microsoft YaHei" font-size="18" fill="white">支出分析</text>
    
    <!-- 时间选择器 -->
    <rect x="0" y="104" width="414" height="50" fill="#ffffff"/>
    <text x="20" y="135" font-family="PingFang SC, Microsoft YaHei" font-size="14" fill="#666">本周</text>
    <text x="80" y="135" font-family="PingFang SC, Microsoft YaHei" font-size="14" fill="#4A6FFF">本月</text>
    <text x="140" y="135" font-family="PingFang SC, Microsoft YaHei" font-size="14" fill="#666">上月</text>
    <text x="200" y="135" font-family="PingFang SC, Microsoft YaHei" font-size="14" fill="#666">今年</text>
    
    <!-- 支出总览 -->
    <rect x="20" y="174" width="374" height="100" rx="8" fill="#f5f7fa"/>
    <text x="40" y="204" font-family="PingFang SC, Microsoft YaHei" font-size="14" fill="#666">本月支出</text>
    <text x="40" y="240" font-family="PingFang SC, Microsoft YaHei" font-size="24" fill="#333">¥5,316.62</text>
    <text x="40" y="260" font-family="PingFang SC, Microsoft YaHei" font-size="12" fill="#999">较上月 +¥526.30 (10.9%)</text>
    
    <!-- 饼图 -->
    <rect x="20" y="294" width="374" height="300" rx="8" fill="#f5f7fa"/>
    <text x="40" y="324" font-family="PingFang SC, Microsoft YaHei" font-size="16" fill="#333">支出分类占比</text>
    
    <circle cx="207" cy="444" r="100" fill="#ffffff"/>
    <path d="M207,444 L207,344 A100,100 0 0,1 294,444 Z" fill="#FF5722"/>
    <path d="M207,444 L294,444 A100,100 0 0,1 207,544 Z" fill="#4A6FFF"/>
    <path d="M207,444 L207,544 A100,100 0 0,1 120,444 Z" fill="#4CAF50"/>
    
    <!-- 图例 -->
    <rect x="40" y="564" width="12" height="12" fill="#FF5722"/>
    <text x="60" y="575" font-family="PingFang SC, Microsoft YaHei" font-size="14" fill="#333">餐饮 35%</text>
    
    <rect x="140" y="564" width="12" height="12" fill="#4A6FFF"/>
    <text x="160" y="575" font-family="PingFang SC, Microsoft YaHei" font-size="14" fill="#333">交通 30%</text>
    
    <rect x="240" y="564" width="12" height="12" fill="#4CAF50"/>
    <text x="260" y="575" font-family="PingFang SC, Microsoft YaHei" font-size="14" fill="#333">购物 35%</text>
</svg>