<?xml version="1.0" encoding="UTF-8"?>
<svg width="300" height="400" viewBox="0 0 300 400" xmlns="http://www.w3.org/2000/svg">
    <!-- 状态栏 -->
    <rect x="0" y="0" width="300" height="44" fill="#4A6FFF"/>
    <text x="15" y="28" fill="white" font-family="Arial" font-size="14" font-weight="bold">9:41</text>
    <g transform="translate(250, 15)">
        <path d="M0,0 L15,0" stroke="white" stroke-width="2"/>
        <path d="M20,0 L35,0" stroke="white" stroke-width="2"/>
        <rect x="40" y="-7" width="15" height="14" stroke="white" fill="none"/>
    </g>
    
    <!-- 头部区域 -->
    <rect x="0" y="44" width="300" height="60" fill="#4A6FFF"/>
    <text x="20" y="80" fill="white" font-family="Arial" font-size="18">交易记录</text>
    
    <!-- 搜索栏 -->
    <rect x="15" y="119" width="270" height="40" rx="20" fill="#f5f5f5"/>
    <circle cx="35" cy="139" r="8" fill="none" stroke="#999" stroke-width="2"/>
    <line x1="41" y1="145" x2="47" y2="151" stroke="#999" stroke-width="2"/>
    <text x="55" y="144" fill="#999" font-family="Arial" font-size="14">搜索交易记录...</text>
    
    <!-- 筛选标签 -->
    <rect x="15" y="174" width="50" height="25" rx="12.5" fill="#4A6FFF"/>
    <text x="27" y="191" fill="white" font-family="Arial" font-size="12">全部</text>
    
    <rect x="75" y="174" width="50" height="25" rx="12.5" fill="#f0f0f0"/>
    <text x="87" y="191" fill="#666" font-family="Arial" font-size="12">收入</text>
    
    <rect x="135" y="174" width="50" height="25" rx="12.5" fill="#f0f0f0"/>
    <text x="147" y="191" fill="#666" font-family="Arial" font-size="12">支出</text>
    
    <!-- 交易列表 -->
    <text x="20" y="230" fill="#666" font-family="Arial" font-size="14" font-weight="bold">今天 (6月15日)</text>
    
    <!-- 交易项目1 -->
    <rect x="15" y="245" width="270" height="70" fill="white" stroke="#f0f0f0" stroke-width="1"/>
    <circle cx="45" cy="280" r="20" fill="#f0f5ff"/>
    <text x="35" y="286" fill="#4A6FFF" font-family="Arial" font-size="16">🍜</text>
    <text x="80" y="275" fill="#333" font-family="Arial" font-size="14" font-weight="bold">午餐</text>
    <text x="80" y="295" fill="#999" font-family="Arial" font-size="12">餐饮</text>
    <text x="250" y="275" fill="#FF5722" font-family="Arial" font-size="14" font-weight="bold" text-anchor="end">-¥35.00</text>
    <text x="250" y="295" fill="#999" font-family="Arial" font-size="12" text-anchor="end">12:30</text>
    
    <!-- 交易项目2 -->
    <rect x="15" y="315" width="270" height="70" fill="white" stroke="#f0f0f0" stroke-width="1"/>
    <circle cx="45" cy="350" r="20" fill="#f0f5ff"/>
    <text x="35" y="356" fill="#4A6FFF" font-family="Arial" font-size="16">☕</text>
    <text x="80" y="345" fill="#333" font-family="Arial" font-size="14" font-weight="bold">星巴克</text>
    <text x="80" y="365" fill="#999" font-family="Arial" font-size="12">餐饮</text>
    <text x="250" y="345" fill="#FF5722" font-family="Arial" font-size="14" font-weight="bold" text-anchor="end">-¥28.00</text>
    <text x="250" y="365" fill="#999" font-family="Arial" font-size="12" text-anchor="end">14:15</text>
</svg>